<svg xmlns="http://www.w3.org/2000/svg" width="1200" height="630" viewBox="0 0 1200 630" fill="none">
  <defs>
    <linearGradient id="bg" x1="0" y1="0" x2="1200" y2="630" gradientUnits="userSpaceOnUse">
      <stop stop-color="#FFF6FB"/>
      <stop offset="0.55" stop-color="#FFEAF4"/>
      <stop offset="1" stop-color="#FFF4D6"/>
    </linearGradient>
    <radialGradient id="glowPink" cx="0" cy="0" r="1" gradientUnits="userSpaceOnUse" gradientTransform="translate(240 140) rotate(31.8) scale(390 248)">
      <stop stop-color="#FF6DB4" stop-opacity="0.36"/>
      <stop offset="1" stop-color="#FF6DB4" stop-opacity="0"/>
    </radialGradient>
    <radialGradient id="glowGreen" cx="0" cy="0" r="1" gradientUnits="userSpaceOnUse" gradientTransform="translate(1020 540) rotate(-145) scale(420 280)">
      <stop stop-color="#56C56F" stop-opacity="0.34"/>
      <stop offset="1" stop-color="#56C56F" stop-opacity="0"/>
    </radialGradient>
    <linearGradient id="heart" x1="600" y1="184" x2="600" y2="318" gradientUnits="userSpaceOnUse">
      <stop stop-color="#FFC5E3"/>
      <stop offset="1" stop-color="#FF5CA7"/>
    </linearGradient>
    <linearGradient id="arcL" x1="445" y1="145" x2="325" y2="290" gradientUnits="userSpaceOnUse">
      <stop stop-color="#FF64B0"/>
      <stop offset="1" stop-color="#FFD3E9"/>
    </linearGradient>
    <linearGradient id="arcR" x1="742" y1="140" x2="875" y2="292" gradientUnits="userSpaceOnUse">
      <stop stop-color="#A8EE90"/>
      <stop offset="1" stop-color="#4CC26F"/>
    </linearGradient>
    <linearGradient id="titleGradient" x1="360" y1="355" x2="846" y2="497" gradientUnits="userSpaceOnUse">
      <stop stop-color="#39B763"/>
      <stop offset="0.49" stop-color="#FF4F9E"/>
      <stop offset="1" stop-color="#F4B22C"/>
    </linearGradient>
  </defs>
  <rect width="1200" height="630" fill="url(#bg)"/>
  <rect width="1200" height="630" fill="url(#glowPink)"/>
  <rect width="1200" height="630" fill="url(#glowGreen)"/>
  <path d="M600 318C596 315 542 281 542 240C542 220 557 205 577 205C591 205 602 212 612 225C622 212 633 205 647 205C667 205 682 220 682 240C682 281 628 315 624 318C618 322 606 322 600 318Z" fill="url(#heart)"/>
  <path d="M508 210C475 183 430 182 396 213C367 239 366 281 389 307C404 325 429 337 455 334C476 332 491 321 506 304C516 292 526 279 541 268" stroke="url(#arcL)" stroke-width="26" stroke-linecap="round"/>
  <path d="M693 268C708 279 718 292 728 304C743 321 758 332 779 334C805 337 830 325 845 307C868 281 867 239 838 213C804 182 759 183 726 210" stroke="url(#arcR)" stroke-width="26" stroke-linecap="round"/>
  <path d="M492 160L500 176L518 179L505 191L508 209L492 201L476 209L479 191L466 179L484 176L492 160Z" fill="#FFD568"/>
  <path d="M708 152L716 168L734 171L721 183L724 201L708 193L692 201L695 183L682 171L700 168L708 152Z" fill="#FFD568"/>
  <text x="600" y="430" fill="url(#titleGradient)" font-size="108" font-family="Playfair Display, serif" font-weight="700" text-anchor="middle">SoulSync</text>
  <text x="600" y="495" fill="#6F3D57" font-size="40" font-family="DM Sans, sans-serif" font-weight="600" text-anchor="middle">Prostor za mirniji um</text>
  <text x="600" y="544" fill="#7D5A6E" font-size="30" font-family="DM Sans, sans-serif" font-weight="500" text-anchor="middle">Razumite svoje emocije. Dišite lakše. Živite stabilnije.</text>
</svg>
